<?xml version="1.0" encoding="UTF-8" standalone="no"?>
<svg
   version="1.1"
   width="1850"
   height="512"
   id="svg2"
   sodipodi:docname="brand.svg"
   inkscape:version="1.4 (86a8ad7, 2024-10-11)"
   xmlns:inkscape="http://www.inkscape.org/namespaces/inkscape"
   xmlns:sodipodi="http://sodipodi.sourceforge.net/DTD/sodipodi-0.dtd"
   xmlns="http://www.w3.org/2000/svg"
   xmlns:svg="http://www.w3.org/2000/svg">
  <defs
     id="defs2">
    <clipPath
       clipPathUnits="userSpaceOnUse"
       id="clipPath4">
      <rect
         style="fill:#808080"
         id="rect5"
         width="512"
         height="510.8324"
         x="0.58380842"
         y="0.58380842" />
    </clipPath>
    <clipPath
       clipPathUnits="userSpaceOnUse"
       id="clipPath2">
      <rect
         style="fill:#a0a0a0"
         id="rect3"
         width="1850.0039"
         height="512.00452"
         x="-0.00390625"
         y="0" />
    </clipPath>
    <clipPath
       clipPathUnits="userSpaceOnUse"
       id="clipPath5">
      <rect
         style="fill:#cccccc"
         id="rect7"
         width="516"
         height="138"
         x="-32"
         y="-30" />
    </clipPath>
  </defs>
  <svg
     version="1.1"
     width="512"
     height="512"
     id="svg1"
     sodipodi:insensitive="true"
     clip-path="url(#clipPath4)">
    <svg
       width="512"
       height="512"
       viewBox="0 0 135.46666 135.46667"
       version="1.1"
       id="SvgjsSvg1145"
       inkscape:export-filename="favicon.svg"
       inkscape:export-xdpi="96"
       inkscape:export-ydpi="96"
       sodipodi:docname="favicon.svg"
       inkscape:version="1.2.2 (732a01da63, 2022-12-09)">
      <sodipodi:namedview
         id="SvgjsSodipodi:namedview1144"
         pagecolor="#ffffff"
         bordercolor="#000000"
         borderopacity="0.25"
         inkscape:showpageshadow="2"
         inkscape:pageopacity="0.0"
         inkscape:pagecheckerboard="true"
         inkscape:deskcolor="#d1d1d1"
         inkscape:document-units="mm"
         showgrid="false"
         inkscape:zoom="0.50000001"
         inkscape:cx="642.99998"
         inkscape:cy="240.99999"
         inkscape:window-width="1920"
         inkscape:window-height="1177"
         inkscape:window-x="3192"
         inkscape:window-y="-8"
         inkscape:window-maximized="1"
         inkscape:current-layer="layer2" />
      <defs
         id="SvgjsDefs1143" />
      <g
         inkscape:label="Layer 1"
         inkscape:groupmode="layer"
         id="SvgjsG1142" />
    </svg>
    <style
       id="style1">@media (prefers-color-scheme: light) { :root { filter: none; } }
</style>
  </svg>
  <g
     inkscape:groupmode="layer"
     id="layer2"
     inkscape:label="Stern">
    <path
       id="text5"
       style="font-style:normal;font-variant:normal;font-weight:normal;font-stretch:normal;font-size:533.333px;font-family:'Open Sans';-inkscape-font-specification:'Open Sans';text-align:start;letter-spacing:-13.44px;writing-mode:lr-tb;direction:ltr;text-anchor:start;fill:#cccccc;fill-opacity:1"
       d="M 641.83398 122.44336 C 615.44511 122.44336 592.52842 126.78429 573.08398 135.46484 C 553.81316 143.97178 538.96939 156.29754 528.55273 172.44336 C 518.13607 188.58918 512.92773 208.0343 512.92773 230.77734 C 512.92773 248.13844 515.87848 263.06837 521.78125 275.56836 C 527.85764 287.89474 535.58399 298.39953 544.95898 307.08008 C 554.33398 315.76063 564.22982 323.13846 574.64648 329.21484 C 585.06314 335.11762 594.69857 340.1517 603.55273 344.31836 C 617.61523 351.08919 630.2014 357.4273 641.3125 363.33008 C 652.59722 369.23285 661.45139 375.56901 667.875 382.33984 C 674.29861 389.11067 677.50977 397.26975 677.50977 406.81836 C 677.50977 414.63085 675.68685 421.57596 672.04102 427.65234 C 668.39518 433.72873 662.4937 438.50239 654.33398 441.97461 C 646.34788 445.44683 635.75694 447.18359 622.5625 447.18359 C 603.46529 447.18359 584.19443 443.97244 564.75 437.54883 C 545.30557 431.12522 526.55554 423.9197 508.5 415.93359 L 508.5 490.93359 C 518.91666 495.96831 529.85417 500.22114 541.3125 503.69336 C 552.94444 506.99197 565.00977 509.50998 577.50977 511.24609 C 590.18337 512.9822 603.11806 513.84961 616.3125 513.84961 C 646.17359 513.84961 671.5202 509.33637 692.35352 500.30859 C 713.36045 491.28082 729.33399 478.43423 740.27148 461.76758 C 751.20898 445.10092 756.67773 425.48154 756.67773 402.91211 C 756.67773 382.94684 752.94379 366.28016 745.47852 352.91211 C 738.01324 339.37045 727.33615 327.65169 713.44727 317.75586 C 699.732 307.68642 683.15342 298.05099 663.70898 288.84961 C 647.73677 281.21073 634.3674 274.52799 623.60352 268.79883 C 613.01324 263.06966 605.02843 257.16623 599.64648 251.08984 C 594.43815 244.83985 591.83398 237.2016 591.83398 228.17383 C 591.83398 220.53494 593.6569 213.85026 597.30273 208.12109 C 600.94857 202.21832 606.32921 197.70508 613.44727 194.58008 C 620.56532 191.28147 629.15908 189.63086 639.22852 189.63086 C 653.63823 189.63086 667.78885 191.62804 681.67773 195.62109 C 695.56661 199.44054 711.27779 204.90929 728.8125 212.02734 L 754.85352 149.26758 C 735.23547 140.58703 716.39929 133.9885 698.34375 129.47461 C 680.46182 124.78711 661.62564 122.44336 641.83398 122.44336 z M 137.30469 127.91211 L 137.30469 508.64258 L 218.0332 508.64258 L 218.0332 344.31836 L 368.81445 344.31836 L 368.81445 508.64258 L 449.2832 508.64258 L 449.2832 127.91211 L 368.81445 127.91211 L 368.81445 277.13086 L 218.0332 277.13086 L 218.0332 127.91211 L 137.30469 127.91211 z M 843.23633 155.51758 L 820.32031 216.97461 L 776.57031 243.53711 L 776.57031 277.13086 L 814.5918 277.13086 L 814.5918 417.49609 C 814.5918 442.49608 818.49805 462.02735 826.31055 476.08984 C 834.29665 489.97872 845.14606 499.78841 858.86133 505.51758 C 872.75021 511.07313 888.37523 513.84961 905.73633 513.84961 C 920.66687 513.84961 934.38282 512.54752 946.88281 509.94336 C 959.55642 507.51281 970.14736 504.3878 978.6543 500.56836 L 978.6543 441.45508 C 970.49458 444.05924 962.24739 446.22873 953.91406 447.96484 C 945.75435 449.70095 937.33485 450.56836 928.6543 450.56836 C 918.23764 450.56836 909.81619 447.87803 903.39258 442.49609 C 897.14258 436.94054 894.01758 428.6072 894.01758 417.49609 L 894.01758 277.13086 L 975.5293 277.13086 L 975.5293 217.49609 L 894.01758 217.49609 L 894.01758 155.51758 L 843.23633 155.51758 z M 1144.1191 212.02734 C 1116.6886 212.02734 1092.6441 217.75652 1071.9844 229.21484 C 1051.3247 240.49956 1035.1788 257.51282 1023.5469 280.25586 C 1012.0885 302.82529 1006.3594 331.12459 1006.3594 365.15234 C 1006.3594 398.65927 1012.6955 426.43773 1025.3691 448.48633 C 1038.2164 470.53493 1055.8386 486.9412 1078.2344 497.70508 C 1100.8038 508.46896 1126.6712 513.84961 1155.8379 513.84961 C 1178.2337 513.84961 1197.2442 512.20095 1212.8691 508.90234 C 1228.6677 505.60373 1243.7719 500.39539 1258.1816 493.27734 L 1258.1816 431.81836 C 1241.8622 439.45724 1225.9768 445.18642 1210.5254 449.00586 C 1195.074 452.8253 1178.0608 454.73633 1159.4844 454.73633 C 1137.0886 454.73633 1119.5525 448.39821 1106.8789 435.72461 C 1094.3789 422.87739 1087.6962 405.25715 1086.8281 382.86133 L 1274.5879 382.86133 L 1274.5879 344.31836 C 1274.5879 316.01977 1269.2934 292.0614 1258.7031 272.44336 C 1248.1129 252.82532 1233.0948 237.89539 1213.6504 227.65234 C 1194.206 217.23568 1171.0288 212.02734 1144.1191 212.02734 z M 1488.2305 212.02734 C 1475.3833 212.02734 1463.4041 214.54536 1452.293 219.58008 C 1441.3555 224.44119 1431.5477 231.03777 1422.8672 239.37109 C 1414.3602 247.53081 1407.2409 256.55925 1401.5117 266.45508 L 1397.6055 266.45508 L 1385.8867 217.49609 L 1325.7305 217.49609 L 1325.7305 508.64258 L 1405.1582 508.64258 L 1405.1582 360.46484 C 1405.1582 346.74957 1407.3277 335.20507 1411.668 325.83008 C 1416.1819 316.28147 1422.2596 308.64127 1429.8984 302.91211 C 1437.5373 297.00934 1446.1311 292.75651 1455.6797 290.15234 C 1465.4019 287.54818 1475.3839 286.24609 1485.627 286.24609 C 1489.0992 286.24609 1493.1797 286.50651 1497.8672 287.02734 C 1502.7283 287.37457 1506.4603 287.98155 1509.0645 288.84961 L 1515.0547 214.37109 C 1511.7561 213.67665 1507.4151 213.15582 1502.0332 212.80859 C 1496.8249 212.28776 1492.2235 212.02734 1488.2305 212.02734 z M 1719.8438 212.02734 C 1707.691 212.02734 1695.8841 213.50369 1684.4258 216.45508 C 1673.1411 219.40647 1662.8125 224.00586 1653.4375 230.25586 C 1644.2361 236.50586 1636.5098 244.66689 1630.2598 254.73633 L 1625.832 254.73633 L 1615.1562 217.49609 L 1554.4785 217.49609 L 1554.4785 508.64258 L 1633.9062 508.64258 L 1633.9062 371.66211 C 1633.9062 340.58574 1638.3333 316.80164 1647.1875 300.30859 C 1656.0417 283.81555 1672.6202 275.56836 1696.9258 275.56836 C 1713.0716 275.56836 1724.8785 280.86481 1732.3438 291.45508 C 1739.9826 302.04535 1743.8008 317.75652 1743.8008 338.58984 L 1743.8008 508.64258 L 1823.2285 508.64258 L 1823.2285 318.79883 C 1823.2285 281.47246 1813.7673 254.3891 1794.8438 237.54883 C 1775.9202 220.53495 1750.9201 212.02734 1719.8438 212.02734 z M 1144.6406 268.53711 C 1157.1406 268.53711 1167.383 271.22939 1175.3691 276.61133 C 1183.5289 281.99327 1189.6046 289.28494 1193.5977 298.48633 C 1197.7643 307.68771 1199.9358 318.19055 1200.1094 329.99609 L 1088.6504 329.99609 C 1090.2129 308.81555 1096.0282 293.27669 1106.0977 283.38086 C 1116.3407 273.48503 1129.1892 268.53711 1144.6406 268.53711 z " />
    <g
       id="g2"
       clip-path="url(#clipPath2)">
      <path
         id="SvgjsPath1141"
         style="opacity:1;fill:#318a00;fill-rule:evenodd;stroke-width:0.506858"
         d="M 129.11667 -0.40204264 C 127.24734 -0.19975245 125.40015 0.0020670573 123.80019 0.0020670573 L 21.372339 0.0020670573 L 14.266829 0.0020670573 C 11.032408 0.0020684273 4.5464203 4.220199 2.2520589 9.2474975 C -0.042302615 14.274796 0.0010335286 20.11099 0.0010335286 23.346895 C 0.0010335286 23.360247 -0.1015822 23.371377 -0.10645345 23.384619 C 4.8381101 23.383645 6.569558 23.366015 11.690242 23.366015 L 123.80019 23.366015 C 125.81272 23.366015 127.1302 23.358043 129.11667 23.357747 L 129.11667 -0.40204264 z M -0.10645345 23.384619 C -559.58657 23.494762 -2.4421356 29.733824 -0.10645345 23.384619 z M 400.05 19.364192 L 400.05 19.36626 C 400.04955 19.365619 400.05045 19.364833 400.05 19.364192 z "
         transform="scale(3.7795276)" />
      <rect
         style="opacity:1;fill:#da23d4;fill-opacity:1;fill-rule:evenodd;stroke:none;stroke-width:0.573072"
         id="SvgjsRect1140"
         width="36.539459"
         height="121.75293"
         x="-12.437652"
         y="23.362795"
         transform="scale(3.7795276)" />
      <rect
         style="fill:#318a00;fill-opacity:1;stroke-width:11.6233"
         id="rect6"
         width="1339.3572"
         height="87.709724"
         x="512.47522"
         y="0.58367717"
         clip-path="url(#clipPath5)" />
    </g>
  </g>
  <style
     id="style2">@media (prefers-color-scheme: light) { :root { filter: none; } }
@media (prefers-color-scheme: dark) { :root { filter: none; } }
</style>
</svg>
